<?xml version="1.0" encoding="utf-8"?>
<!-- Generator: Adobe Illustrator 26.0.2, SVG Export Plug-In . SVG Version: 6.00 Build 0)  -->
<svg version="1.2" baseProfile="tiny" id="Layer_1" xmlns="http://www.w3.org/2000/svg" xmlns:xlink="http://www.w3.org/1999/xlink"
	 x="0px" y="0px" viewBox="0 0 1200 800" overflow="visible" xml:space="preserve">
<rect width="1200" height="800"/>
<g>
	<path fill="#FFFFFF" d="M524.45,309.44l-33.96-35.19c11.48-16.24,27.85-29.29,49.1-39.13c21.25-9.84,44.26-14.77,69.03-14.77
		l-0.49,46.76c-15.42,0-30.6,3.86-45.53,11.57C547.66,286.39,534.95,296.64,524.45,309.44z M600.25,579.65
		c-10.01,0-18.58-3.57-25.72-10.71s-10.71-15.71-10.71-25.72c0-10.17,3.57-18.78,10.71-25.84c7.14-7.05,15.71-10.58,25.72-10.58
		c10.17,0,18.79,3.53,25.84,10.58c7.05,7.06,10.58,15.67,10.58,25.84c0,10.01-3.53,18.58-10.58,25.72
		C619.03,576.08,610.42,579.65,600.25,579.65z M575.14,462.51v-23.62c0-16.24,3.36-30.55,10.09-42.94
		c6.73-12.39,16.82-22.84,30.27-31.38c13.29-8.2,23.26-17.18,29.9-26.95c6.64-9.76,9.97-20.3,9.97-31.62
		c0-12.3-4.1-21.86-12.3-28.67c-8.21-6.81-19.85-10.21-34.95-10.21l0.49-46.76c31.99,0,56.81,7.26,74.44,21.78
		c17.63,14.52,26.46,34.99,26.46,61.4c0,18.21-4.55,34.78-13.66,49.71c-9.11,14.93-22.76,28.22-40.97,39.87
		c-10.5,6.89-18.38,14.4-23.62,22.52c-5.25,8.12-7.88,17.02-7.88,26.7v20.18H575.14z"/>
</g>
</svg>
