<?xml version="1.0" encoding="utf-8"?>
<!-- Generator: Adobe Illustrator 26.0.2, SVG Export Plug-In . SVG Version: 6.00 Build 0)  -->
<svg version="1.2" baseProfile="tiny" id="Layer_1" xmlns="http://www.w3.org/2000/svg" xmlns:xlink="http://www.w3.org/1999/xlink"
	 x="0px" y="0px" viewBox="0 0 1000 1000" overflow="visible" xml:space="preserve">
<rect width="1000" height="1000"/>
<g>
	<g>
		<path fill="#FFFFFF" d="M77.4,467.81v-53.39h7.82v53.39H77.4z M77.4,421.56v-7.14h35.34v7.14H77.4z M77.4,444.65v-7.14h28.57v7.14
			H77.4z M77.4,467.81v-7.14h35.34v7.14H77.4z"/>
		<path fill="#FFFFFF" d="M122.82,467.81v-39.85h7.22l0.75,8.42v31.43H122.82z M147.33,467.81v-25.94c0-2.41-0.63-4.26-1.88-5.56
			c-1.25-1.3-3.01-1.96-5.26-1.96c-6.27,0-9.4,3.68-9.4,11.05l-2.33-10.23h3.08c0.23-2.68,1.2-4.68,2.93-6
			c1.73-1.32,4.26-1.97,7.59-1.97c4.21,0,7.47,1.28,9.78,3.83c2.31,2.56,3.46,6.17,3.46,10.83v25.94H147.33z"/>
		<path fill="#FFFFFF" d="M164.25,434.94v-6.99h36.09v6.99H164.25z M174.25,449.01v-33.09h7.97v33.09H174.25z M191.4,468.56
			c-6.04,0-10.41-1.25-13.1-3.76c-2.69-2.51-4.04-6.52-4.04-12.03V446h7.97v6.39c0,3.16,0.77,5.45,2.31,6.88
			c1.54,1.43,4.08,2.14,7.61,2.14c1.25,0,2.58-0.07,3.99-0.21c1.4-0.14,3.01-0.32,4.81-0.54l0.9,6.99c-1.75,0.3-3.47,0.53-5.13,0.68
			C195.05,468.48,193.28,468.56,191.4,468.56z"/>
		<path fill="#FFFFFF" d="M209.75,467.81v-6.99h26.62v6.99H209.75z M211.25,434.94v-6.99h13.31l0.75,6.99H211.25z M218.62,467.81
			v-39.85h6.47l1.5,11.43v28.42H218.62z M226.59,450.66l-2.33-12.48h3.08c0.45-7.32,4.11-10.98,10.98-10.98
			c4.11,0,7.09,1.18,8.95,3.53c1.85,2.36,2.78,6.17,2.78,11.43h-7.9c0-2.91-0.43-5-1.3-6.28c-0.87-1.28-2.26-1.92-4.19-1.92
			c-3.38,0-5.91,1.45-7.58,4.34C227.42,441.2,226.59,445.32,226.59,450.66z"/>
		<path fill="#FFFFFF" d="M269.79,467.81l-15.87-39.85h8.27l13.01,33.84h1.2v6.02H269.79z M254.68,485.85l-0.38-7.14l6.24-0.75
			c2.63-0.33,4.88-1.04,6.75-2.14c1.87-1.1,3.47-2.74,4.79-4.91c1.33-2.17,2.49-5.01,3.5-8.52l9.93-34.44h8.27l-11.5,36.32
			c-1.5,4.76-3.19,8.6-5.06,11.5c-1.87,2.91-4.07,5.09-6.62,6.54c-2.54,1.45-5.6,2.38-9.15,2.78L254.68,485.85z"/>
		<path fill="#FFFFFF" d="M349.23,467.81l-4.51-39.85h7.52l3.01,33.84h0.68l4.7-33.84h7.29l-3.35,8.2h-0.53l-4.66,31.66H349.23z
			 M369.16,467.81l-4.66-31.66h-0.6l-3.27-8.2h7.29l4.7,33.84h0.68l3.38-33.84h7.9l-5.64,39.85H369.16z"/>
		<path fill="#FFFFFF" d="M403.9,468.56c-4.16,0-7.38-1-9.66-3.01c-2.28-2-3.42-4.84-3.42-8.5c0-4.21,1.57-7.44,4.72-9.7
			c3.15-2.26,7.59-3.38,13.33-3.38c2.38,0,4.5,0.14,6.37,0.43c1.87,0.29,3.53,0.72,4.98,1.3l-1.65,5.41
			c-1.68-0.38-3.32-0.6-4.92-0.66c-1.6-0.06-3.25-0.09-4.93-0.09c-6.92,0-10.38,2.11-10.38,6.32c0,1.75,0.6,3.11,1.79,4.06
			c1.19,0.95,2.88,1.43,5.06,1.43c2.48,0,4.56-0.43,6.22-1.28c1.67-0.85,2.91-1.94,3.74-3.27c0.83-1.33,1.24-2.69,1.24-4.1v-4.36
			l2.33,10.23h-3.16l1.28-1.2c0,2.31-0.53,4.23-1.6,5.77c-1.07,1.54-2.56,2.69-4.49,3.46C408.81,468.17,406.53,468.56,403.9,468.56z
			 M417.96,468.18l-0.53-11.81l-1.05-3.31v-10.3c0-2.66-0.93-4.61-2.8-5.85c-1.87-1.24-4.64-1.91-8.33-2.01l-9.55-0.26l0.75-7.07
			l8.05,0.11c6.59,0.1,11.49,1.52,14.68,4.27c3.2,2.75,4.79,6.75,4.79,12.01v16.62l6.77,0.83v6.39L417.96,468.18z"/>
		<path fill="#FFFFFF" d="M451.8,468.56c-3.01,0-5.58-0.09-7.73-0.26c-2.14-0.18-4.1-0.46-5.88-0.86l0.9-7.22
			c2.63,0.4,4.96,0.7,6.97,0.9c2.02,0.2,3.93,0.3,5.73,0.3c4.04,0,6.96-0.39,8.78-1.18c1.82-0.79,2.73-2.05,2.73-3.78
			c0-1.2-0.32-2.1-0.96-2.69c-0.64-0.59-1.62-1.05-2.95-1.37l-9.17-2.33c-3.94-1-6.82-2.24-8.67-3.72
			c-1.84-1.48-2.76-3.72-2.76-6.73c0-4.36,1.67-7.52,5.02-9.47c3.35-1.96,8.74-2.93,16.19-2.93c1.93,0,3.73,0.06,5.4,0.17
			c1.67,0.11,3.38,0.31,5.13,0.58l-0.83,6.92c-2.03-0.2-3.82-0.34-5.38-0.41c-1.55-0.08-3.07-0.11-4.55-0.11
			c-4.46,0-7.7,0.38-9.7,1.15c-2.01,0.77-3.01,2.01-3.01,3.74c0,1.15,0.41,1.99,1.24,2.5c0.83,0.51,2.09,0.98,3.8,1.41l7.37,1.8
			c4.19,1,7.25,2.34,9.19,4.02c1.94,1.68,2.91,4.12,2.91,7.33c0,4.29-1.57,7.4-4.7,9.34C463.74,467.59,458.72,468.56,451.8,468.56z"
			/>
		<path fill="#FFFFFF" d="M528.12,467.81v-53.39h7.82v53.39H528.12z M552.04,467.81L536.7,427.2h-3.46v-12.78h4.96l15.34,40.61h1.88
			v12.78H552.04z M554.29,467.81v-53.39h7.82v53.39H554.29z"/>
		<path fill="#FFFFFF" d="M586.32,468.56c-4.19,0-7.43-1.25-9.72-3.74c-2.29-2.49-3.44-6.01-3.44-10.55v-26.32h7.97v26.32
			c0,2.28,0.65,4.04,1.96,5.28c1.3,1.24,3.13,1.86,5.49,1.86c2.91,0,5.1-0.92,6.58-2.76c1.48-1.84,2.22-4.93,2.22-9.27l2.03,10.75
			h-2.63c-0.63,2.71-1.86,4.79-3.68,6.24C591.26,467.83,589.01,468.56,586.32,468.56z M597.38,456.53v-28.57h7.97v26.32
			L597.38,456.53z M598.05,468.18l-0.68-9.55v-6.99h7.97v8.95l5.49,0.83v6.39L598.05,468.18z"/>
		<path fill="#FFFFFF" d="M616.48,418.4v-6.99h12.41v6.99H616.48z M641.29,468.56c-4.61,0-7.95-1.25-10-3.76
			c-2.06-2.51-3.08-6.52-3.08-12.03v-41.36h7.97v40.98c0,2.11,0.2,3.82,0.6,5.15c0.4,1.33,1.18,2.31,2.35,2.93
			c1.17,0.63,2.89,0.94,5.17,0.94c2.08,0,4.74-0.48,7.97-1.43l0.9,6.99c-2.03,0.55-3.98,0.95-5.85,1.2
			C645.46,468.43,643.45,468.56,641.29,468.56z"/>
		<path fill="#FFFFFF" d="M661.59,418.4v-6.99H674v6.99H661.59z M686.41,468.56c-4.61,0-7.95-1.25-10-3.76
			c-2.06-2.51-3.08-6.52-3.08-12.03v-41.36h7.97v40.98c0,2.11,0.2,3.82,0.6,5.15c0.4,1.33,1.18,2.31,2.35,2.93
			c1.17,0.63,2.89,0.94,5.17,0.94c2.08,0,4.74-0.48,7.97-1.43l0.9,6.99c-2.03,0.55-3.98,0.95-5.85,1.2
			C690.58,468.43,688.56,468.56,686.41,468.56z"/>
		<path fill="#FFFFFF" d="M729.04,468.56c-6.79,0-12.04-1.79-15.73-5.36c-3.7-3.57-5.55-8.7-5.55-15.4c0-6.52,1.57-11.58,4.7-15.19
			c3.13-3.61,7.56-5.41,13.27-5.41c5.39,0,9.56,1.63,12.5,4.89c2.95,3.26,4.42,8,4.42,14.21c0,1.83-0.08,3.53-0.23,5.11h-27.97
			v-6.09h20.98c0-3.58-0.85-6.33-2.56-8.25c-1.71-1.92-4.06-2.88-7.07-2.88c-3.38,0-6.01,1.15-7.88,3.46
			c-1.87,2.31-2.8,5.56-2.8,9.78c0,4.61,1.28,8.12,3.85,10.53s6.22,3.61,10.96,3.61c1.65,0,3.28-0.09,4.89-0.28
			c1.6-0.19,3.23-0.44,4.89-0.77l0.98,6.99c-2.36,0.45-4.51,0.74-6.47,0.86C732.28,468.49,730.55,468.56,729.04,468.56z"/>
		<path fill="#FFFFFF" d="M767.66,468.56c-5.21,0-9.17-1.72-11.86-5.15c-2.7-3.43-4.04-8.48-4.04-15.15
			c0-6.92,1.35-12.16,4.04-15.72c2.69-3.56,6.65-5.34,11.86-5.34c2.98,0,5.41,0.7,7.27,2.11c1.87,1.4,2.96,3.36,3.29,5.87h3.08
			l-2.33,11.35c0-4.11-0.81-7.23-2.42-9.36c-1.62-2.13-3.99-3.2-7.12-3.2c-3.21,0-5.64,1.2-7.29,3.61s-2.48,5.97-2.48,10.68
			c0,4.46,0.83,7.83,2.48,10.11c1.65,2.28,4.08,3.42,7.29,3.42c3.13,0,5.51-1.06,7.12-3.2c1.62-2.13,2.42-5.25,2.42-9.36l2.71,11.35
			h-3.46c-0.25,2.51-1.31,4.46-3.18,5.87C773.18,467.85,770.72,468.56,767.66,468.56z M779.8,468.18l-0.83-7.82v-48.95h7.97v56.4
			L779.8,468.18z"/>
		<path fill="#FFFFFF" d="M815.82,438.33c-1.53,0-2.84-0.54-3.93-1.64c-1.09-1.09-1.64-2.4-1.64-3.93c0-1.55,0.54-2.87,1.64-3.95
			c1.09-1.08,2.4-1.62,3.93-1.62c1.55,0,2.87,0.54,3.95,1.62c1.08,1.08,1.62,2.39,1.62,3.95c0,1.53-0.54,2.84-1.62,3.93
			C818.69,437.78,817.37,438.33,815.82,438.33z M815.82,468.56c-1.53,0-2.84-0.54-3.93-1.64c-1.09-1.09-1.64-2.4-1.64-3.93
			c0-1.55,0.54-2.87,1.64-3.95c1.09-1.08,2.4-1.62,3.93-1.62c1.55,0,2.87,0.54,3.95,1.62c1.08,1.08,1.62,2.39,1.62,3.95
			c0,1.53-0.54,2.84-1.62,3.93C818.69,468.01,817.37,468.56,815.82,468.56z"/>
		<path fill="#FFFFFF" d="M76.95,560.21v-53.39h7.82v53.39H76.95z M100.86,560.21L85.52,519.6h-3.46v-12.78h4.96l15.34,40.61h1.88
			v12.78H100.86z M103.12,560.21v-53.39h7.82v53.39H103.12z"/>
		<path fill="#FFFFFF" d="M139.06,560.96c-5.51,0-9.8-1.8-12.86-5.41c-3.06-3.61-4.59-8.7-4.59-15.26c0-6.59,1.53-11.69,4.59-15.28
			c3.06-3.6,7.34-5.4,12.86-5.4c5.54,0,9.83,1.8,12.88,5.4c3.05,3.6,4.57,8.69,4.57,15.28c0,6.57-1.52,11.66-4.57,15.26
			C148.89,559.15,144.6,560.96,139.06,560.96z M139.06,553.81c2.93,0,5.19-1.18,6.79-3.53c1.59-2.36,2.39-5.69,2.39-10
			c0-4.34-0.8-7.68-2.39-10.02s-3.85-3.52-6.79-3.52s-5.19,1.17-6.79,3.52c-1.59,2.34-2.39,5.68-2.39,10.02c0,4.31,0.8,7.65,2.39,10
			C133.87,552.64,136.13,553.81,139.06,553.81z"/>
		<path fill="#FFFFFF" d="M212.75,560.21v-6.99h15.94v6.99H212.75z M215.01,527.34v-6.99h20.9v6.99H215.01z M231.67,514.04
			c-1.53,0-2.84-0.54-3.93-1.64c-1.09-1.09-1.64-2.4-1.64-3.93c0-1.55,0.55-2.87,1.64-3.95c1.09-1.08,2.4-1.62,3.93-1.62
			c1.55,0,2.87,0.54,3.95,1.62c1.08,1.08,1.62,2.39,1.62,3.95c0,1.53-0.54,2.84-1.62,3.93
			C234.54,513.49,233.22,514.04,231.67,514.04z M227.94,560.21v-37.6h7.97v37.6H227.94z M235.16,560.21v-6.99h13.01v6.99H235.16z"/>
		<path fill="#FFFFFF" d="M256.07,560.21v-39.85h7.07l0.9,8.42v31.43H256.07z M271.03,560.21V529c0-2.26-1.05-3.38-3.16-3.38
			c-2.56,0-3.83,1.8-3.83,5.41l-2.33-5.71h2.56c0.3-3.81,2.58-5.71,6.84-5.71c2.08,0,3.72,0.71,4.91,2.14s1.79,3.6,1.79,6.5v31.96
			H271.03z M284.79,560.21v-30.45c0-2.76-1.03-4.14-3.08-4.14c-2.61,0-3.91,1.8-3.91,5.41l-2.71-5.71h3.08
			c0.12-1.55,0.75-2.89,1.86-4.02c1.11-1.13,2.73-1.69,4.83-1.69c2.76,0,4.76,0.74,6.02,2.22c1.25,1.48,1.88,3.87,1.88,7.18v31.21
			H284.79z"/>
		<path fill="#FFFFFF" d="M313.67,560.96c-4.16,0-7.38-1-9.66-3.01c-2.28-2-3.42-4.84-3.42-8.5c0-4.21,1.57-7.44,4.72-9.7
			c3.15-2.26,7.59-3.38,13.33-3.38c2.38,0,4.51,0.14,6.37,0.43c1.87,0.29,3.53,0.72,4.98,1.3l-1.65,5.41
			c-1.68-0.38-3.32-0.59-4.93-0.66c-1.6-0.06-3.25-0.09-4.93-0.09c-6.92,0-10.38,2.11-10.38,6.32c0,1.75,0.6,3.11,1.79,4.06
			c1.19,0.95,2.88,1.43,5.06,1.43c2.48,0,4.56-0.43,6.22-1.28c1.67-0.85,2.91-1.94,3.74-3.27s1.24-2.69,1.24-4.1v-4.36l2.33,10.23
			h-3.16l1.28-1.2c0,2.31-0.53,4.23-1.6,5.77c-1.07,1.54-2.56,2.69-4.49,3.46C318.58,560.58,316.3,560.96,313.67,560.96z
			 M327.73,560.58l-0.53-11.81l-1.05-3.31v-10.3c0-2.66-0.93-4.61-2.8-5.85c-1.87-1.24-4.64-1.91-8.33-2.01l-9.55-0.26l0.75-7.07
			l8.05,0.11c6.59,0.1,11.49,1.52,14.68,4.27c3.2,2.75,4.79,6.75,4.79,12.01v16.62l6.77,0.83v6.39L327.73,560.58z"/>
		<path fill="#FFFFFF" d="M361.6,560.96c-5.21,0-9.17-1.72-11.86-5.15c-2.69-3.43-4.04-8.48-4.04-15.15
			c0-6.92,1.35-12.16,4.04-15.72c2.69-3.56,6.65-5.34,11.86-5.34c3.11,0,5.63,0.7,7.56,2.11c1.93,1.4,3.06,3.36,3.38,5.87h3.08
			l-2.71,11.35c0-4.11-0.81-7.23-2.42-9.36c-1.62-2.13-3.99-3.2-7.12-3.2c-3.21,0-5.64,1.2-7.29,3.61s-2.48,5.97-2.48,10.68
			c0,4.46,0.83,7.83,2.48,10.11s4.09,3.42,7.29,3.42c3.13,0,5.51-1.06,7.12-3.2c1.62-2.13,2.42-5.25,2.42-9.36l2.71,11.35h-3.46
			c-0.25,2.51-1.31,4.46-3.18,5.87C367.12,560.25,364.66,560.96,361.6,560.96z M348.93,578.18l-0.38-7.29l12.78-0.38
			c4.04-0.12,6.97-1.24,8.8-3.35c1.83-2.11,2.76-5.2,2.78-9.29v-29.1l0.75-8.42h7.22v36.32c0,7.09-1.62,12.33-4.85,15.72
			s-8.38,5.19-15.45,5.41L348.93,578.18z"/>
		<path fill="#FFFFFF" d="M413.22,560.96c-6.79,0-12.04-1.79-15.73-5.36c-3.7-3.57-5.55-8.7-5.55-15.4c0-6.52,1.57-11.58,4.7-15.19
			c3.13-3.61,7.56-5.41,13.27-5.41c5.39,0,9.56,1.63,12.5,4.89c2.95,3.26,4.42,8,4.42,14.21c0,1.83-0.08,3.53-0.23,5.11h-27.97
			v-6.09h20.98c0-3.58-0.85-6.33-2.56-8.25c-1.71-1.92-4.06-2.88-7.07-2.88c-3.38,0-6.01,1.15-7.88,3.46
			c-1.87,2.31-2.8,5.56-2.8,9.78c0,4.61,1.28,8.12,3.85,10.53s6.22,3.61,10.96,3.61c1.65,0,3.28-0.09,4.89-0.28
			c1.6-0.19,3.23-0.44,4.89-0.77l0.98,6.99c-2.36,0.45-4.51,0.74-6.47,0.87C416.46,560.89,414.73,560.96,413.22,560.96z"/>
		<path fill="#FFFFFF" d="M480.07,527.34v-6.99h36.09v6.99H480.07z M490.07,541.41v-33.09h7.97v33.09H490.07z M507.22,560.96
			c-6.04,0-10.41-1.25-13.1-3.76c-2.7-2.51-4.04-6.52-4.04-12.03v-6.77h7.97v6.39c0,3.16,0.77,5.45,2.31,6.88
			c1.54,1.43,4.08,2.14,7.61,2.14c1.25,0,2.58-0.07,3.99-0.21c1.4-0.14,3.01-0.32,4.81-0.54l0.9,6.99c-1.75,0.3-3.47,0.53-5.13,0.68
			C510.87,560.88,509.1,560.96,507.22,560.96z"/>
		<path fill="#FFFFFF" d="M545.12,560.96c-5.51,0-9.8-1.8-12.86-5.41c-3.06-3.61-4.59-8.7-4.59-15.26c0-6.59,1.53-11.69,4.59-15.28
			c3.06-3.6,7.34-5.4,12.86-5.4c5.54,0,9.83,1.8,12.88,5.4c3.05,3.6,4.57,8.69,4.57,15.28c0,6.57-1.52,11.66-4.57,15.26
			C554.95,559.15,550.66,560.96,545.12,560.96z M545.12,553.81c2.93,0,5.19-1.18,6.79-3.53c1.59-2.36,2.39-5.69,2.39-10
			c0-4.34-0.8-7.68-2.39-10.02s-3.85-3.52-6.79-3.52s-5.2,1.17-6.79,3.52c-1.59,2.34-2.39,5.68-2.39,10.02c0,4.31,0.8,7.65,2.39,10
			C539.92,552.64,542.18,553.81,545.12,553.81z"/>
		<path fill="#FFFFFF" d="M632.31,560.96c-5.21,0-9.17-1.72-11.86-5.15c-2.7-3.43-4.04-8.48-4.04-15.15
			c0-6.92,1.35-12.16,4.04-15.72c2.69-3.56,6.65-5.34,11.86-5.34c2.98,0,5.41,0.7,7.27,2.11c1.87,1.4,2.96,3.36,3.29,5.87h3.08
			l-2.33,11.35c0-4.11-0.81-7.23-2.42-9.36c-1.62-2.13-3.99-3.2-7.12-3.2c-3.21,0-5.64,1.2-7.29,3.61s-2.48,5.97-2.48,10.68
			c0,4.46,0.83,7.83,2.48,10.11s4.08,3.42,7.29,3.42c3.13,0,5.51-1.06,7.12-3.2c1.62-2.13,2.42-5.25,2.42-9.36l2.71,11.35h-3.46
			c-0.25,2.51-1.31,4.46-3.18,5.87C637.83,560.25,635.36,560.96,632.31,560.96z M644.45,560.58l-0.83-7.82v-48.95h7.97v56.4
			L644.45,560.58z"/>
		<path fill="#FFFFFF" d="M663.93,560.21v-6.99h15.94v6.99H663.93z M666.18,527.34v-6.99h20.9v6.99H666.18z M682.84,514.04
			c-1.53,0-2.84-0.54-3.93-1.64c-1.09-1.09-1.63-2.4-1.63-3.93c0-1.55,0.54-2.87,1.63-3.95c1.09-1.08,2.4-1.62,3.93-1.62
			c1.55,0,2.87,0.54,3.95,1.62c1.08,1.08,1.62,2.39,1.62,3.95c0,1.53-0.54,2.84-1.62,3.93
			C685.71,513.49,684.39,514.04,682.84,514.04z M679.12,560.21v-37.6h7.97v37.6H679.12z M686.33,560.21v-6.99h13.01v6.99H686.33z"/>
		<path fill="#FFFFFF" d="M722.5,560.96c-3.01,0-5.58-0.09-7.73-0.26c-2.14-0.18-4.1-0.46-5.88-0.87l0.9-7.22
			c2.63,0.4,4.96,0.7,6.97,0.9c2.02,0.2,3.93,0.3,5.73,0.3c4.04,0,6.96-0.39,8.78-1.18c1.82-0.79,2.73-2.05,2.73-3.78
			c0-1.2-0.32-2.1-0.96-2.69c-0.64-0.59-1.62-1.05-2.95-1.37l-9.17-2.33c-3.94-1-6.82-2.24-8.67-3.72
			c-1.84-1.48-2.76-3.72-2.76-6.73c0-4.36,1.67-7.52,5.02-9.47c3.35-1.96,8.74-2.93,16.19-2.93c1.93,0,3.73,0.06,5.4,0.17
			c1.67,0.11,3.38,0.31,5.13,0.58l-0.83,6.92c-2.03-0.2-3.82-0.34-5.38-0.41c-1.55-0.08-3.07-0.11-4.55-0.11
			c-4.46,0-7.7,0.38-9.7,1.15c-2.01,0.77-3.01,2.01-3.01,3.74c0,1.15,0.41,1.99,1.24,2.5c0.83,0.51,2.09,0.98,3.8,1.41l7.37,1.8
			c4.19,1,7.25,2.34,9.19,4.02s2.91,4.12,2.91,7.33c0,4.29-1.57,7.4-4.7,9.34C734.45,559.99,729.42,560.96,722.5,560.96z"/>
		<path fill="#FFFFFF" d="M754.46,577.5v-57.15h7.22l0.75,8.42v48.73H754.46z M773.75,560.96c-3.06,0-5.52-0.7-7.39-2.11
			s-2.93-3.36-3.18-5.87h-3.46l2.71-11.35c0,4.11,0.81,7.23,2.42,9.36c1.62,2.13,3.99,3.2,7.12,3.2c3.21,0,5.64-1.14,7.29-3.42
			s2.48-5.65,2.48-10.11c0-4.71-0.83-8.27-2.48-10.68s-4.09-3.61-7.29-3.61c-3.13,0-5.51,1.07-7.12,3.2
			c-1.62,2.13-2.42,5.25-2.42,9.36l-2.71-11.35h3.08c0.35-2.51,1.49-4.46,3.4-5.87c1.92-1.4,4.43-2.11,7.54-2.11
			c5.24,0,9.2,1.78,11.88,5.34c2.68,3.56,4.02,8.8,4.02,15.72c0,6.67-1.34,11.72-4.02,15.15
			C782.95,559.24,778.99,560.96,773.75,560.96z"/>
		<path fill="#FFFFFF" d="M796.95,510.8v-6.99h12.41v6.99H796.95z M821.76,560.96c-4.61,0-7.95-1.25-10-3.76
			c-2.06-2.51-3.08-6.52-3.08-12.03v-41.36h7.97v40.98c0,2.11,0.2,3.82,0.6,5.15c0.4,1.33,1.18,2.31,2.35,2.93
			c1.17,0.63,2.89,0.94,5.17,0.94c2.08,0,4.74-0.48,7.97-1.43l0.9,6.99c-2.03,0.55-3.98,0.95-5.85,1.2S823.92,560.96,821.76,560.96z
			"/>
		<path fill="#FFFFFF" d="M855.07,560.96c-4.16,0-7.38-1-9.66-3.01c-2.28-2-3.42-4.84-3.42-8.5c0-4.21,1.57-7.44,4.72-9.7
			c3.15-2.26,7.59-3.38,13.33-3.38c2.38,0,4.5,0.14,6.37,0.43c1.87,0.29,3.53,0.72,4.98,1.3l-1.65,5.41
			c-1.68-0.38-3.32-0.59-4.92-0.66c-1.6-0.06-3.25-0.09-4.93-0.09c-6.92,0-10.38,2.11-10.38,6.32c0,1.75,0.59,3.11,1.79,4.06
			c1.19,0.95,2.88,1.43,5.06,1.43c2.48,0,4.56-0.43,6.22-1.28c1.67-0.85,2.91-1.94,3.74-3.27c0.83-1.33,1.24-2.69,1.24-4.1v-4.36
			l2.33,10.23h-3.16l1.28-1.2c0,2.31-0.53,4.23-1.6,5.77c-1.07,1.54-2.56,2.69-4.49,3.46C859.98,560.58,857.7,560.96,855.07,560.96z
			 M869.13,560.58l-0.53-11.81l-1.05-3.31v-10.3c0-2.66-0.93-4.61-2.8-5.85c-1.87-1.24-4.64-1.91-8.33-2.01l-9.55-0.26l0.75-7.07
			l8.05,0.11c6.59,0.1,11.49,1.52,14.68,4.27c3.2,2.75,4.79,6.75,4.79,12.01v16.62l6.77,0.83v6.39L869.13,560.58z"/>
		<path fill="#FFFFFF" d="M901.43,560.21l-15.87-39.85h8.27l13.01,33.84h1.2v6.02H901.43z M886.32,578.25l-0.38-7.14l6.24-0.75
			c2.63-0.33,4.88-1.04,6.75-2.14c1.87-1.1,3.46-2.74,4.79-4.91c1.33-2.17,2.49-5.01,3.5-8.52l9.93-34.44h8.27l-11.51,36.32
			c-1.5,4.76-3.19,8.6-5.06,11.5s-4.07,5.09-6.62,6.54s-5.6,2.38-9.15,2.78L886.32,578.25z"/>
	</g>
</g>
</svg>
